<?xml version="1.0" encoding="UTF-8"?>
<svg xmlns="http://www.w3.org/2000/svg" version="1.1" viewBox="0 0 512 512">
  <defs>
    <style>
      .cls-1 {
        fill: red;
      }
    </style>
  </defs>
  <!-- Generator: Adobe Illustrator 28.6.0, SVG Export Plug-In . SVG Version: 1.2.0 Build 709)  -->
  <g>
    <g id="Layer_1">
      <g>
        <path class="cls-1" d="M511.9,477.8c-3.7-1.1-5.7-4.5-8.6-6.7-2.8-2.1-6.1-3.4-9.2-5,.7-6.7-5.8-2.2-7.9-5.5-1.5-2.3-5.3-3.4-8.2-4.2-3.5-.9-5.7-6.1-8.4-5.1-4.1,1.6-5.3-2.1-7.9-2.8-2.3-.6-4.4-2.6-6.7-2.8-3.4-.2-6.1-.9-8.8-3.5-2.8-2.8-9-1.7-13.5,1h-6.8c-3.9-4.2-9.4-5.7-13.7-9.4-.4-.4-1.5,0-2.2,0-.7-4-5.1-2.3-6.8-4.7.3-5.2-3.2-7.4-6.8-9.5,0-1.6-.7-2.4-2.3-2.4-.6-2.6-2.1-4.2-4.5-4.7,0-1.6-.7-2.4-2.3-2.4h-4.5c1.5-4.3-2-4.6-4.3-5.7-1.6-2.7,2.3-7-2.5-8.5,0-1.6-.7-2.4-2.3-2.4-.8-1.6-1.5-3.2-2.3-4.7-.3-1.4.7-3.1-.7-4.4-4.2-1.2-8.8.7-12.9-1.1v-11.1c4.2-2.4,1.6-6,2.2-8.8-2.2-1-4.6,0-4.5-3-.6-2.6-2.1-4.2-4.5-4.7h-9.1v4.7h-2.3c-1.6,0-2.3.7-2.3,2.4-3.6.9-4.9,3.4-4.5,7.1-1.6,0-2.3.7-2.3,2.4-2.5.6-4,2.2-4.5,4.7-1.6,0-2.3.7-2.3,2.4v2.4c-.8,1.6-1.5,3.2-2.3,4.7-1.6,0-2.3.7-2.3,2.4-4.4,1.1-1.4,4.8-2.3,7.1-.2,3.5-2.8,2-4.5,2.4-4.8,1.2-4.4,6.4-6.8,9.5-1.6,0-2.3.7-2.3,2.4-1.6,0-2.3.7-2.3,2.4h-2.3c-4.3.1-8.5-.7-12,3.9-3.1,4.1-8.5,3.4-13.2,3.1-.6,0-1.2-.7-1.7-1-.2-1.2-.4-2.2-.8-4.3-2.9,5.5-8.5.6-11.7,4.8-.8,1-3.5.4-5.3.4-2.2,0-5,.6-6.4-.6-2.1-1.7-2.6-.8-4.2.4-2.5,1.8-4-1.3-5.6-2.3-3.7-2.3-7.6-2.1-11.5-2.2-4.2,1.2-7.3-2.8-11.3-2.4h-2.3c-.3-1.8,1.1-4.5-2.3-4.7h-2.3c-.3-1.9,1.6-2.3,2.3-3.8-3.8-1.3-8-1.9-11.3-4.5.9-2,3.7-.2,4.5-2.5v-8.1c.5-.9,1.1-1.7,1.4-2.7,1-2.6,2.6-5.3-1.4-6.8v-2.4c-.2-3.5-2.8-2-4.5-2.4-2.3-3.2-4.5-3.2-6.8,0h-6.8v2.4h-4.5c-1.6,0-2.3.7-2.3,2.4-3.6.9-4.9,3.4-4.5,7.1h-4.5c-1.6,0-2.3.7-2.3,2.4-1.6,0-2.3.7-2.3,2.4h-4.5c-2.3-.4-4.2.4-5.7,2.2-2.1-1.4-2.9-4.4-6.1-4.7-2.9-.2-1.4-3-1.8-4.6.8-4.3,6-5.2,6.8-9.5h2.3c5.4-3.2,8.9-8.8,14.5-11.9,2.1-1.1,2.7-3.8-.9-4.7v-2.4c1.6,0,2.3-.7,2.3-2.4.3-1.4-.6-2.2-1.7-2.3-1.5-.2-3-.2-2.8-2.4,0-1.6-.7-2.4-2.3-2.4h-4.5c-5-.4-7.1,3.3-9.1,7.1-5.8,1.2-7.9,3.4-9.1,9.5h-2.3c-3.2,1.4-5.5,3.8-6.8,7.1-2.5.6-4,2.2-4.5,4.7-5.1.5-6.3,1.8-6.8,7.1-3.7-.7-5.2.9-4.5,4.7-1.6,0-2.3.7-2.3,2.4-2.2.9-5.7-2.2-6.8,2.4-3,2.4-6,4.7-9.1,7.1h-2.3c-3.5-.4-5.9,1-6.8,4.7-3.6,2.7-8.5,3-11.3,7.1-5.1,2.1-6,7-6.8,11.8-.8,1.6-1.5,3.2-2.3,4.7v4.7c-.8,1.6-1.5,3.2-2.3,4.7h-4.5c-1.7.4-4.3-1.2-4.5,2.4-2.5.6-4,2.2-4.5,4.7-1.6,0-2.3.7-2.3,2.4v2.4c-.7,0-1.7-.3-2.1,0-2.4,2.3-4.7,4.7-7,7.1-1.6,0-2.3.7-2.3,2.4v2.4h-2.3c-1.6,0-2.3.7-2.3,2.4-5.8,4.4-6,5.2-2.3,9.5.2,3.5,2.8,2,4.5,2.4-.7,3.9.8,5.5,4.5,4.7,1.6,0,2.3-.7,2.3-2.4h4.5c3.4-.2,1.9-2.9,2.3-4.7,1.6,0,2.3-.7,2.3-2.4h2.3c1.7-.4,4.3,1.2,4.5-2.4v-2.4c2.3-1.6,4.5-3.2,6.8-4.7,4.6,1.3,7.6-1.4,11-5.8-.2,5,3.7,2.2,5,4.9-3.6,1.7-2,5.2-2.3,8.1v2.4c-1.6,0-2.3.7-2.3,2.4-1.6,0-2.3.7-2.3,2.4-1.6,0-2.3.7-2.3,2.4-1.6,0-2.3.7-2.3,2.4-2.5.6-4,2.2-4.5,4.7-3.9-.2-6.8,1.6-9.1,4.7-2.4.3-3.9,3.5-6.8,2.4-5.1,1.9-9.1,5.3-12.4,9.5h-5.8c-3.9-.2-6.8,1.6-9.1,4.7-1.7,2.4-6.1.7-6.8,4.7v2.4h494v-30.8c0-1.2.3-3.3,0-3.4ZM489.2,504.9s0,0,0,0h0ZM298.9,502.6s0,0,0,0h0ZM70,502.6s0,0,0,0c0,0,0,0,0,0h0ZM441.6,452.6c0,0,.1,0,.2.1h-.2ZM122.1,498.1c0,0-.1-.2-.2-.3h.2v.3ZM289.7,441s0,0,0-.1h0c0,0,0,0,0,0,0,0,0,0,0,0ZM493.8,481.2h0s0,0,0,0h0ZM491.4,478.8s0,0,0-.1h0c0,.1,0,.1,0,.1ZM298.8,471.3c0,.1,0,.2,0,.4h-.4c.1-.1.3-.2.4-.4ZM310,464.6s0,0-.1,0c-.1,0-.3,0-.4-.2.3,0,.5,0,.6-.1,0,0,0,.2,0,.3,0,0-.1,0-.2,0ZM307.9,476.5s0,0,0-.1h0c0,.1,0,.1,0,.1ZM321.4,469.3s0,0,.1-.1c0,0,0,0,0,.1h-.1ZM366.9,455.1s0,0,.1,0h-.1ZM355.6,445.4c0,0,.1.2.2.2h-.2c0,0,0-.1,0-.2ZM339.7,455s0,0,0,0h0ZM337.4,455.1h0c0,0,0,0,0,0h0ZM355.5,452.6c0,0,0,.1.1.2h-.1v-.2ZM360.1,455.1s0,0,.1,0h-.1ZM364.6,455.1h0s0,0,0-.1h0ZM337.5,452.5c0,0,.2.2.2.2h-.4c0,0,0-.1.1-.2ZM360.1,457.4s0,0,0,0h0ZM332.9,445.5h0c0,.1,0,.1,0,.1,0,0,0,0,0-.1ZM360.1,422h0c0,0,0,0,0,0,0,0,0,0,0,0ZM348.7,417.2s0,0,0,0c0,0,0,0,0,0h0ZM328.3,450.4c0,.5-.1.8-.2,1.2,0-.3,0-.5,0-.8-.1-.1-.2-.2-.3-.3h.5ZM369.1,476.5h.1s0,0-.1,0h0ZM335.1,426.5c0,0,0,.1,0,.2,0,0,0,0-.1,0,0,0,0-.1.1-.2ZM323.8,452.8h-.2c0-.1.1-.1.2-.2v.2ZM310.2,450.4s0,0,0,0h0s0,0,0,0ZM310.2,448.1h0c0,0,0,0,.1,0,0,0,0,0-.1,0ZM298.9,448.1s0,0-.1,0h.1ZM298.9,488.2h0c0,0,0,0-.1,0,0,0,0,0,.1,0ZM355.5,476.5h.1s0,0-.1,0h0ZM362.3,478.8h.1s0,.1-.1.2v-.2ZM369.1,481.2h.1c0,0,0,.1-.1.2v-.2ZM369.1,431.4h0c0-.1,0,0,0,0h0ZM357.8,405.4h0c0,0,0,0,0,0h0ZM332.9,483.6h0c-.2.1-.3,0-.5,0,.2,0,.3,0,.5,0ZM357.8,476.5h.2c0,0-.1,0-.2.1h0ZM430.3,478.8h0s0,0,0,0c0,0,0,0,0,0ZM443.9,464.6h-.2s0,0,0-.1c0,0,0,0,0,.1ZM432.6,466.8c0,0,.1.1.2.2,0,0-.1,0-.2,0,0,0,0,0,0-.1ZM405.4,474.2s0,0,0,0c0,0,0,0,0,0h0ZM312.5,493s0,0,0,.1h0c0-.1,0-.1,0-.1ZM317,497.8v.2c0,0,0-.1-.1-.2h.1ZM328.3,485.9h0s0,0,0,0h0ZM335.1,490.7h0s0,0,0,0h0ZM348.7,481.5v-.3h.1c0,0,0,.2-.1.3ZM357.8,481.2h.1s0,0-.1,0h0ZM421.2,478.8v.4c0-.1-.1-.3-.2-.4h.2ZM405.4,467h-.1s0,0,.1-.1h0ZM344.2,381.7h0c0,0,0,0,0,0,0,0,.1,0,.2,0h-.2ZM309.9,420.8c-.1-.1-.3-.2-.4-.4,0-.1.1-.3.2-.4.3.2.4.4.3.8ZM255.8,448c0-.2,0-.4,0-.6v.6c.1,0,.3,0,.4,0,0,.1.1.2.1.2-.2,0-.4.2-.6.3v-.4h0ZM298.9,493h0c0,0,0,0,0,0h0ZM351,393.5s0,0,0,0c0,0,0,.1,0,.1h0ZM255.8,429.1s0,0,0,0c0,0,0,0,0,0h0ZM119.8,490.7s0,0,0,0c0,0,0,0,0,0h0ZM183.3,410s0,0,0,.1h0ZM122.1,483.6s0,0,0,0h0ZM155.3,462.2c0,0,.2,0,.3,0-.1,0-.3.2-.4.4-.2-.2-.3-.3-.4-.4.1,0,.3,0,.6,0ZM192.4,443.3s0,0,0,0h0ZM178.8,433.8v.2c0,0,0-.1,0-.2h0ZM162.9,445.8s0,0,0-.1h0ZM162.9,443c0,0,0,.2,0,.2h-.5c.2,0,.3-.1.5-.2ZM160.6,445.9c-.2-.1-.3-.2-.5-.3.2,0,.3,0,.5,0v.3ZM128.9,469v.3h-.1c0-.1,0-.2.1-.3ZM183.3,426.8c0,0,0-.1-.1-.2,0,0,0,0,.1,0,0,0,0,0,0,.2ZM176.5,424.3h-.3c.1,0,.2-.2.3-.3v.3ZM167.4,434.2c0-.1,0-.3-.2-.4h.2v.4ZM149.3,462.2h0c0,0,0,0,0,0,0,0,0,0,0,0ZM106.2,474.1s0,0,0,0h0ZM185.6,427c0-.1,0-.2,0-.3h.3c-.1,0-.2.2-.3.3ZM167.4,431.6s0,0,0-.1h0ZM160.6,436.2h0s0,0,0,0h0ZM131.2,450.4h-.1s0,0,.1-.1h0ZM135.7,478.7c0,0,0,.1.1.2h-.1v-.2ZM205.9,433.8h0c0,0,0,0,.1,0h-.1ZM156.1,429.1s0,0,0,0c0,0,0,0,0,0h0ZM97.2,478.6v.2h-.1c0,0,0-.1.1-.2ZM119.8,443.3c-.6,0-1,0-1.4-.2.5,0,.9,0,1.4,0v.2ZM113.9,443.3s0,0,0,0c0,0,0,0,0,0,0,0,0,0,0,0ZM92.6,478.7c0,0,0,.1,0,.2h0v-.2ZM122.1,493.1h0c0,0,0,0,.1,0h-.1ZM182.2,488.2c0,0-.2-.1-.3-.2,0,0,.2.1.3.2ZM208.2,431.5h0c0-.1,0-.1,0-.1,0,0,0,0,0,.1ZM158.4,419.6s0,0,0,0c0,0,0,0,0,0h0ZM165.2,495.4v.2c0,0,0-.1-.1-.2h.1ZM165.1,410.1s0,0,0,0h0c0,0,0,0,0,0,0,0,0,0,0,0ZM160.6,412.5h-.1s0,0,.1,0h0ZM142.5,422s0,0,0,0c0,0,0,0,0,0h0ZM90.4,476.4h0c0,0,0,0,0,0,0,0,0,0,0,0ZM90.4,497.8h.1s0,0-.1,0h0ZM147.3,497.8c0,0-.2.2-.3.3,0-.1,0-.2,0-.3h.3ZM160.6,493v.2c0,0,0-.1-.1-.2h.1ZM249,450.4h0s0,0,0,0h0ZM296.6,497.8v.2c0,0,0-.1-.1-.2h.1ZM344.2,495.5h0c0,0,0,0,0,0,0,0,0,0,0,0ZM493.9,495.4s0,0-.1.1h0c0-.1,0-.1.1-.1ZM366.9,407.8s0,0,0,0h0s0,0,0,0ZM335.1,381.7s0,0,0,0h0ZM314.7,422c0,0-.1,0-.2,0,0,0,.1-.1.2-.2v.2ZM85.8,476.4s0,0,0,0h0ZM99.4,504.9s0,0,0-.1c0,0,0,0,0,.1h0ZM108.5,500.2c0,0,0,.1,0,.2,0,0,0-.1-.1-.2h.2ZM283,493.1s0,0-.1-.1h.1ZM398.6,483.6s0,0,0,.1c0,0,0,0-.1-.1,0,0,0,0,0,0ZM409.9,490.7h0s0,0,0,0h0ZM425.8,500.2h0c0,0-.1,0-.2,0h.2ZM477.9,502.9c0-.1,0-.2,0-.4h.5c-.1,0-.3.2-.4.4ZM421.2,457.5h0,0s0,0,0,0ZM402.9,446.7c.1,0,.2,0,.4-.1,0,.1,0,.2,0,.3-.1,0-.2-.1-.3-.2ZM323.8,403h0s0,0,0,0c0,0,0,0,0,0ZM228.6,424.3s0,0,0,0c0,0,0,0,0,0h0ZM210.5,426.7h0s0,0,0,0c0,0,0,0,0,0ZM128.9,500.2h0c0,0,0,0,0,0h0ZM131.2,500.2h0c0,0,0,0,0,0,0,0,0,0,0,0ZM135.7,500.2h0s0,0,0,0h0ZM144.8,502.5s0,0,0,0c0,0,0,0,0,0h0ZM301.1,502.5h0s0,0,0,0h0ZM409.9,493h0s0,0,0,0h0ZM480.2,502.5h.2s-.1,0-.2.1h0ZM317,403c0,0-.2,0-.3,0,0,0,.2-.2.2-.3,0,0,0,.2,0,.3ZM60.9,490.7s-.1,0-.2,0c0,0,0-.1.1-.2,0,0,0,0,0,.1ZM378.2,504.9s0,0,0,0c0,0,0,0,0,0,0,0,0,0,0-.1ZM405.4,502.5s0,0,0,0c0,0,0,0,0,0,0,0,0,0,0,0ZM450.7,500.2h0s0,0,0,0h0ZM42.6,469.3h.2c0-.2.2-.4.3-.5,0,.2,0,.3-.3.6,0,0,0,0,0,0ZM76.8,476.4h0s0,0,0,0c0,0,0,0,0,0ZM74.5,478.8h0s0,0,0,0h0ZM74.5,483.6c0,.2,0,.3,0,.4,0-.1-.1-.3-.2-.4h.2ZM71.8,504.9h.4v.2c-.1,0-.3-.1-.4-.2ZM169.7,507.3h0s0,0,0,0Z"/>
        <path class="cls-1" d="M26.9,320.1h11.3c1.5-.8,3-1.6,4.5-2.4,2.6.3,5.6-1,7.7,2,.4.5,1.4-.8,1.3-2h52.1c1.5-.8,3-1.6,4.5-2.4h13.6c.2.7.4,1.8.8,1.9,1.4.3,1.6-.7,1.5-1.9h11.3c1.1,4.6,4.6,1.5,6.8,2.4,0,1.6,0,3.1,0,4.7-.1,1.4.6,2.3,1.7,2.4,1.5.2,3,0,2.9-2.3,1.3.2,2.8.2,4,.7,5.3,2.3,5.3,2.3,9.6-3.1v-2.4c4-1.5,2.8-4.6,1.2-6.8-1.2-1.7-1.2-3.3-1.2-5.1-.6-4-.2-7.5,4.5-8.4,0,0,0-.7,0-1.1,2.1.2,2.3-1.3,2.3-2.9,0-4.6,0-9.1,0-13.7v-2.4c2.1-2.8,2.5-6.1,2.3-9.5v-52.1c1.6,0,2.3-.7,2.3-2.4,4-.4,7.2,3.6,11.3,2.4h20.4c0,1.6.7,2.4,2.3,2.4h9.1c0,1.6.7,2.4,2.3,2.4.2,3.5,2.8,2,4.5,2.4,0,1.6.7,2.4,2.3,2.4h2.3c1.5.8,3,1.6,4.5,2.4h6.8c2.2-.9,5.7,2.2,6.8-2.4,1.6,0,2.3-.7,2.3-2.4.7,0,1.6.2,2.2,0,6.4-2.6,11.9-8.1,19.5-7.2,2.1-2.9,7.2-2.2,7.8-6.9,2.4.3,3.9,3.5,6.8,2.4.8,1.6,1.5,3.2,2.3,4.7.9,2.3-2.1,6,2.3,7.1v2.4c0,1.9-.6,4.1.1,5.6,2.1,4.5.4,11.2,6.7,13.4v2.4c0,1.6.7,2.4,2.3,2.4.3,2.8-1.2,6.7,2.1,7.9,3.4,1.2,4,5,6.9,6.3,2.3,1.8.7,6.4,4.5,7.1v2.4c0,1.6.7,2.4,2.3,2.4,0,1.6.7,2.4,2.3,2.4v2.4c-.2,4,1.6,7.1,4.5,9.5v4.7c0,1.6.7,2.4,2.3,2.4.6,2.6,2.1,4.2,4.5,4.7v2.4c.9,3.7,3.3,5.1,6.8,4.7h4.5c1.1,4.6,4.6,1.5,6.8,2.4,0,1.6.7,2.4,2.3,2.4.2,3.5,2.8,2,4.5,2.4h2.3c1.8,0,4.7-.8,5.3.1,2.4,3.5,4.1-.1,6-.1,1.1,4.6,4.6,1.5,6.8,2.4h22.7c2.2-.9,5.7,2.2,6.8-2.4,3.3.3,6.4-.1,9.1-2.4h20.4c.2,3.5,2.8,2,4.5,2.4h4.5c1.1,4.6,4.6,1.5,6.8,2.4h43.1c2.5-1.2,4.7-2.7,7.9-2.5,4.9.3,10,.8,14.8-.4v-16c-.2-3.5-2.8-2-4.5-2.4-.3-1.8,1.1-4.5-2.3-4.7h-4.5c-1.6,0-2.3.7-2.3,2.4h-63.5c0-1.6-.7-2.4-2.3-2.4h-6.8c-2.2.9-5.7-2.2-6.8,2.4h-13.6c-2.2.9-5.7-2.2-6.8,2.4-4.1-2.4-4.4-2.3-4.5,2.4h-15.9c-.2-3.5-2.8-2-4.5-2.4.2-2.2-1.2-2.4-2.8-2.4-4.4,0-8.7,0-13.1,0-1.6,0-2.3-.7-2.3-2.4v-2.4c2,.1,2.3-1.2,2.3-2.8,0-2.2,0-4.5,0-6.7v-4.7c.3-2.5,3.4-4.1,2.3-7.1v-4.7c3.6-.9,4.9-3.4,4.5-7.1h2.3c4.8-1.2,4.4-6.4,6.8-9.5,3.4-.2,1.9-2.9,2.3-4.7,1.6,0,2.3-.7,2.3-2.4v-2.4c1.6,0,2.3-.7,2.3-2.4v-4.7c1.7-.4,4.3,1.2,4.5-2.4v-2.4c1.6,0,2.3-.7,2.3-2.4v-2.4c4.4-1.1,1.4-4.8,2.3-7.1.8-1.6,1.5-3.2,2.3-4.7h2.3c3.8-.7,2.2-5.3,4.5-7.1v-2.4c1.6,0,2.3-.7,2.3-2.4v-2.4c2.5-.6,4-2.2,4.5-4.7v-2.4c3.4-.2,1.9-2.9,2.3-4.7,1.6,0,2.3-.7,2.3-2.4,0-1.8-.3-3.6,1.4-5.2,1.3-1.2,3.2-2,3.1-4.3v-2.4c.8-1.6,1.5-3.2,2.3-4.7,1.7-.4,4.3,1.2,4.5-2.4v-2.4c1.7-.4,4.3,1.2,4.5-2.4,3.8-.7,2.2-5.3,4.5-7.1v-2.4c1.6,0,2.3-.7,2.3-2.4,4.5-2.2,9.3-4.1,11.3-9.5v-2.4c.8-1.6,1.5-3.2,2.3-4.7,3.8-.7,2.2-5.3,4.5-7.1v-2.4h2.3c4.8-1.2,4.4-6.4,6.8-9.5v-2.4c-.3-1.4.6-2.2,1.7-2.3,2.9-.3,4.4-2,5.1-4.8v-2.4c3.4-.2,1.9-2.9,2.3-4.7,3.4-.2,1.9-2.9,2.3-4.7h2.3c3.4-.2,1.9-2.9,2.3-4.7,3.6-.9,4.9-3.4,4.5-7.1,1.4.3,2.3-.7,2.2-1.8-.2-2.6.7-4.8,2.1-6.9-1.6-.9-2-3.3-4.3-3.2-2.1-2.8-2.3-6.3-2.9-9.7-1.6,1.1-2.1,2.9-3.9,2.6-1.5.8-3,1.6-4.5,2.4-1.6,0-2.3.7-2.3,2.4-3.2,1.4-5.5,3.8-6.8,7.1-1.6,0-2.3.7-2.3,2.4v2.4c-.8,1.6-1.5,3.2-2.3,4.7-1.6,0-2.3.7-2.3,2.4v2.4c-1.6,0-2.3.7-2.3,2.4v2.4c-3.4.2-1.9,2.9-2.3,4.7h-2.3c-3.8.7-2.2,5.3-4.5,7.1v2.4c-1.6,0-2.3.7-2.3,2.4-3.8.7-2.2,5.3-4.5,7.1-3.4.2-1.9,2.9-2.3,4.7v4.7c-2.5.6-4,2.2-4.5,4.7v2.4h-4.5c-1.6,0-2.3.7-2.3,2.4-3.4.2-1.9,2.9-2.3,4.7-3.7-.7-5.2.9-4.5,4.7-3.2,1.4-5.5,3.8-6.8,7.1v4.7c-.3,1.8,1.1,4.5-2.3,4.7-2.6.7-4.5,2.2-4.5,5.1,0,3.6-5.3.5-4.6,4.4-3.4.2-1.9,2.9-2.3,4.7-2.6.7-4.8,2.3-4.4,5.1.5,3.1-2.3,4.3-2.4,6.8-3.2,1.4-5.5,3.8-6.8,7.1v2.4c-3.8.7-2.2,5.3-4.5,7.1v2.4c.3,1.5-.6,2.3-1.7,2.3-3.8-.1-2.6,2.7-2.8,4.8-3,2.4-4.7,5.4-4.5,9.5-3.8.7-2.2,5.3-4.5,7.1h-2.3q-3.4,2-6.8,0c-1.6,0-2.3-.7-2.3-2.4.2-4-1.6-7.1-4.5-9.5-.3-1.8,1.1-4.5-2.3-4.7v-9.5c-.2-2.4,2.7-3.2,2.4-6-.6-5.6,2.6-10.3,4.4-15.4v-7.1c3.8-.7,2.2-5.3,4.5-7.1,2.5-.6,4-2.2,4.5-4.7h4.5v-9.5c1.3.3,2.4-.8,2.2-1.6-.9-3.3,1.4-5.3,2.4-7.9v-2.4c5-1.3,4.7-5.4,4.5-9.5,3.8-.7,2.2-5.3,4.5-7.1v-2.4c1.6,0,2.3-.7,2.3-2.4v-4.7c3.4-.2,1.9-2.9,2.3-4.7,4.7-4.6,5.9-11.2,9.1-16.6v-4.7c3.4-.2,1.9-2.9,2.3-4.7,1.6,0,2.3-.7,2.3-2.4,2.5-.6,4-2.2,4.5-4.7v-2.4h2.3c2.5-.6,4-2.2,4.5-4.7,1.6,0,2.3-.7,2.3-2.4,1.4.3,2.3-.7,2.2-1.8-.2-3.3,1-6.9-.9-10h-3.6c-.3-1.7,1-4.1-1.7-4.7-1.5-.3-3,0-2.8,2.3-2.1,0-4.3,0-6.4,0-1.5,0-2.8.3-2.7,2.4v2.4h-4.5c-3.8.7-2.2,5.3-4.5,7.1v2.4c-3.4.2-1.9,2.9-2.3,4.7h-2.3c-2.4-.4-5.1,0-5.7,2.5-2,9-5.9,16.7-12.4,23-.6.5.3,2.5-.2,3.4-1.2,2.2-2.4,5-5.8,4-3.6-5.2,2.5-3.7,4.4-7.3,2.6-2.5-7.4-6.4-.8-10.5-1.8-1-2.2-3.5-4.5-3.4v-2.4c1.6,0,2.3-.7,2.3-2.4,4.4-1.1,1.4-4.8,2.3-7.1v-7.1c1.6,0,2.3-.7,2.3-2.4v-2.4c3.4-.2,1.9-2.9,2.3-4.7v-9.5c1.6,0,2.3-.7,2.3-2.4v-7.1c2.1-2.8,2.5-6.1,2.3-9.5,1.4-2,4.4-13,4.5-16.6-.3-1.9,1.5-2.3,2.2-3.5-3.3-6-8.9-2.9-13.5-3.6-3.2,1.4-5.5,3.8-6.8,7.1v7.1c-4.4,1.1-1.4,4.8-2.3,7.1v4.7c-.6.3-1.8.5-1.8.8.3,7.8-3.9,15-2.7,22.9-2-.2-2.3,1.2-2.3,2.8,0,3,0,6,0,9-2.9,0-2.4,2.3-2.2,3.9.3,3.7-.1,7.2-2.3,10.3v4.7c-.8,1.6-1.5,3.2-2.3,4.7-3.4.2-1.9,2.9-2.3,4.7v7.1c-3.4.2-1.9,2.9-2.3,4.7v2.4c-4,4.1-4.5,9.3-4.6,14.8,0,1.7.8,4.1-2.2,4.1-1.4-.3-1.8.7-2.3,1.9-2.8,6.3-2.5,13.8-6.8,19.4-2.1,2.8-1.8,6.3-3.1,9.5-2.6,0-5.2.7-7-2.2-1.3-2.3-3.4-2.9-5.8-2.5h-6.8c-.2-3.5-2.8-2-4.5-2.4,0-1.6-.7-2.4-2.3-2.4-.3-1.5.7-3.2-1.3-4.8-7.7,1.2-14.6-2.4-18.5-4.4-5.2-5.1-.1-7.4-1.3-8.9-2.5-3.4-2.4-7.1-.7-9.6,2.2-3.2-4-7.2,1.4-9.3,0-4.7,1.3-10.2-.6-13.9-2.3-4.4-.9-8.3-1.7-12.3-.5-2.8,3-4.1,2.5-7.3-.3-1.9-4.5-4.1-.3-6.3-2.2-1.6-2.1-3.3-.1-5-3-.6-.6-5.7-4.3-5.7v-2.4c.1-5.6-1.3-11.6,4.4-15.7.9-.6.1-3.7.1-5.6v-7.1c2,.2,2.3-1.2,2.3-2.8,0-3,0-6,0-9v-7.1c3.7-.4,2.3-3.5,2.1-5.3-.2-2.9-2.8-1.5-4.4-1.8h-36.3c-3.3-.5-5.2,1.1-6.7,4,1.8.7,3.1,1.1,4.5,1.6q-4.3,5.1-3.6,10.8c1.4.2,3-.3,3.5,1.8-.5,1.2-.5,6.9-.2,8.7.2,1.9.3,3.6-.3,5.6-2.6,8.3-2.4,9.9.5,20.8.6,2.2-1.3,3.3-3.3,7,1.6.5,3.8,1.3,5.9,2-2.2,2.3-3.5,3.7-4.7,4.9,1.5,3,3,5.8,4.4,8.5-1.8,3.6-3.4,6.8-5,10,1,1.2,1.7,2,2.7,3.3-5.6,1.8-3.5,8.5-7.2,11.8-3.6,3.3-6.8,7.4-10.7,10.3-3.7,2.7-4.5,8.5-10.1,9.7-4.9-.6-9.8-3.2-12.1-7.8-2.6-5.3-6.1-9.9-8.3-15.3-2.9-7-6.9-13.3-12.6-17.9-1.3-3.9,1-8-1.7-11.5-3.4-4.4-3.5-9.8-3.1-15.1-6.5-6.8-12.9-13.5-19.3-20.2-1.2.8-1.7,2.7-4.7,2.1-3.1-4.3-6.7-9.2-10.2-14.1,5.4-9-6-8.8-6.8-14.6.7-1,1.5-2.2,2.3-3.4-3.2-.5-5.3-4.2-8.9-3.3h-18.1c-4.4,1.1-1.4,4.8-2.3,7.1,0,1.6.7,2.4,2.3,2.4.3,1.8-1.1,4.5,2.3,4.7v4.7c0,1.6.7,2.4,2.3,2.4v2.4c0,1.6.7,2.4,2.3,2.4v2.4c.3,2.5,3.4,4.1,2.3,7.1.9,2.3-2.1,6,2.3,7.1,1,6.2,1.9,12.4,3,18.5.2,1,1.9,1.4,1.5,2.8.3,1.8-1.1,4.5,2.3,4.7.9,2.3-2.1,6,2.3,7.1.3,1.8-1.1,4.5,2.3,4.7.8,1.6,1.5,3.2,2.3,4.7v2.4c1,2.5,3.2,4.6,2.4,7.9-.2.8.9,1.9,2.2,1.6.4,4.6,1.7,9,4.3,12.8,1.2,1.8-1.7,5.6,2.5,6.1-.2,5.3.9,10.2,4.5,14.2v4.7c0,1.6-.7,2.4-2.3,2.4h-2.3c-1.2-5-6.1-4.6-9.1-7.1h-2.3c-2.4.3-3.9,3.5-6.8,2.4h-2.3c-2.5.6-4,2.2-4.5,4.7-1.4.3-2.9-.7-4.1.7-1.3,2,.7,4.7-1.3,6.2-1.6-.3-1.8-2.6-3.7-2.2h-4.5c-.9-2.3,2.1-6-2.3-7.1v-2.4c-.3-1.8,1.1-4.5-2.3-4.7v-7.1c.2-4-1.6-7.1-4.5-9.5-.6-2.6-2.1-4.2-4.5-4.7q0-6.7-4.5-7.1h-2.3v-2.4c.7-3.9-.8-5.5-4.5-4.7,0-1.6-.7-2.4-2.3-2.4v-7.1c-.3-1.8,1.1-4.5-2.3-4.7-1.6,0-2.3-.7-2.3-2.4,0-1.6-.7-2.4-2.3-2.4,0-1.6-.7-2.4-2.3-2.4v-2.4c.2-2.2-1.3-2.2-2.8-2.4-1.1-.1-2-.9-1.7-2.3v-2.4c-2.3-3.9-4.5-7.9-6.8-11.8-.6-2.6-2.1-4.2-4.5-4.7,0-1.6-.7-2.4-2.3-2.4.4-3.7-1-6.2-4.5-7.1-.3-1.8,1.1-4.5-2.3-4.7v-2.4c-.6-2.6-2.1-4.2-4.5-4.7h-2.3v-9.5c-2.4-3.1-2-8.3-6.8-9.5C21.5,1.6,19.6,0,16.3.1c-3.2.1-6.5,0-9.7,0H-.3v7.1H2c-.2,4,1.6,7.1,4.5,9.5-.4,3.7,1,6.2,4.5,7.1v2.4c-.3,1.4.6,2.2,1.7,2.3,1.5.2,3,.2,2.8,2.4v2.4c0,1.6.7,2.4,2.3,2.4.3,1.8-1.1,4.5,2.3,4.7v2.4c0,1.6.7,2.4,2.3,2.4v2.4c2.3,1.8.7,6.4,4.5,7.1-.2,2.2,1.3,2.2,2.8,2.4,1.1.1,2,.9,1.7,2.3v2.4c-.3,1.4.6,2.2,1.7,2.3,1.5.2,3,.2,2.8,2.4v2.4c.2,3.5,2.8,2,4.5,2.4,0,3.3-.9,7.1,2.9,8.8,3.6,1.6-.9,7.2,3.9,7.8.9,3.7,3.3,5.1,6.8,4.7v4.7c2.3,1.8.7,6.4,4.5,7.1h4.5c0,1.6.7,2.4,2.3,2.4v2.4c.9,2.3-2.1,6,2.3,7.1-.2,4,1.6,7.1,4.5,9.5,0,1.6.7,2.4,2.3,2.4.1,5.9-1.3,12.3,4.5,16.6,0,1.6.7,2.4,2.3,2.4.3,1.8-1.1,4.5,2.3,4.7v4.7c0,1.6.7,2.4,2.3,2.4v2.4c.2,2.5,2.2,4,2.6,6.8.3,2.4.5,6.5,4.2,7.4.3,1.8-1.1,4.5,2.3,4.7v2.4c.9,2.3-2.1,6,2.3,7.1.3,1.8-1.1,4.5,2.3,4.7v7.1c0,1.6.7,2.4,2.3,2.4v2.4c.3,1.8-1.1,4.5,2.3,4.7v4.7c1,2.5,3.2,4.6,2.4,7.9-.2.8.9,1.9,2.2,1.6.9,2.3-2.1,6,2.3,7.1,0,1.9-.6,4.1.1,5.6,2.1,4.5.4,11.2,6.7,13.4q0,6.7,4.5,7.1v2.4c0,1.6.7,2.4,2.3,2.4.3,1.8-1.1,4.5,2.3,4.7,0,1.6.7,2.4,2.3,2.4h2.3v21.3h-20.4c-1.8,0-3.7-.4-5,1.6-1,1.6-2.7.5-4.1.8h-36.3c-2.2.9-5.7-2.2-6.8,2.4h-6.8c-3.3-.3-6.4.1-9.1,2.4h-2.3c-2.9-1.2-4.4,2-6.8,2.4-2.3-3.2-4.5-3.2-6.8,0H-.3v21.3h13.6c3.9,0,8,.7,11.3-2.4h2.3ZM7.8,315.4c0,.1.2.2.2.3-.4.1-.8.3-1.2.5.2-.4.5-.8,1-.9ZM446.2,303.5v.2s0,0-.1,0h.1ZM260.3,4.9h0s0,0,0,0c0,0,0,0,0,0ZM285.2,156.5s0,0,0,0h0s0,0,0,0c0,0,0,0,0,0ZM140.2,147.1h0s0,0,0-.1c0,0,0,0,0,.1ZM330.6,294.2c0,0,0-.1-.1-.2h.1v.2ZM330.6,144.7s0,0,0,0c0,0,0,0,0,0h0ZM192.4,201.7c0,0-.1,0-.2-.1h.2ZM142.5,282.2s0,0,0,0c0,0,0,0,0,0,0,0,0,0,0,0ZM335.1,189.9c0,0,0-.1-.1-.2h.1v.2ZM149.3,87.6c0,0,0,.2.1.2h-.1v-.2ZM162.9,189.8s0,0,0,0h0ZM149.3,206.1v.3c0,0-.2,0-.2-.1,0,0,.2,0,.2-.1ZM151.2,187.4c.1,0,.3-.1.4-.2,0,0,0,.1,0,.2h-.4ZM142.5,180.2h-.1s0,0,.1-.1h0ZM142.5,232c.1.1.2.3.3.3h-.4c0-.1,0-.2,0-.3ZM153.8,170.7h0s0,0,0,0c0,0,0,0,0,0ZM183.3,170.7s0,0,0,0h0ZM162.6,130.4c.1,0,.2-.2.3-.3v.4c-.2,0-.3,0-.5,0,0,0,.1,0,.2,0ZM133.4,230h0s0,0,0,0h0ZM153.8,225.4c0,0,0,0-.2-.1h.1s0,0,0,.1ZM253.5,111.5h-.1c0,0,0-.1.1-.2v.2ZM217.3,178.1v-.2c0,0,0,0,.1,0,0,0,0,.1-.1.2ZM224.2,180.2s0,0,0,0c0,0,0,0,0,0h0ZM205.9,166s0,0,0,0c0,0,0,0,0,0,0,0,0,0,0,0ZM222,185c0,.2-.2.3-.2.5v-.5h.2ZM221.8,187c0,.1.1.3.2.4h-.2v-.4ZM249,113.5v.4c-.1,0-.2,0-.3,0,.1-.1.2-.3.3-.4ZM196.9,182.7s0,0,0,0c0,0,0,0,0,0,0,0,0,0,0,0ZM253.5,142.4h0s0,0,0,0c0,0,0,0,0,0ZM255.8,92.6s0,0,0,0h0c0,0,0,0,.1,0,0,0,0,0-.1,0,0,0,0,0,0,0ZM246.7,111.5s0,0,0,0h0ZM140.2,159.1c0,0,0-.1-.1-.2h.1v.2ZM151.6,239.5h.3c-.1.1-.2.3-.3.4v-.4ZM258.1,109.2h0s0,0,0,0c0,0,0,0,0,0ZM235.4,137.6h0s0,0,0,0c0,0,0,0,0,0ZM176.5,140h0s0,0,0,0c0,0,0,0,0,0ZM149.4,265.7s0,0,0-.1h.2s0,0,0,.1ZM165.2,197.1c0,0,0-.2,0-.3h.3c0,0-.2.2-.2.3ZM274.1,173.1s0,0,0,0c0,.2,0,.3,0,.4,0-.1,0-.2,0-.4h.1ZM312.5,194.8c0-.1-.1-.2-.2-.4h.2v.4ZM332.9,249h.1c0,0,0,.1-.1.2v-.2ZM307.9,194.5s0,0,0,0h0ZM301.1,211h0c-.1,0-.3,0-.4,0h.4ZM339.7,267.9h0c0,0,0,0,.2,0h-.2ZM335.1,168.4s.1,0,.2,0c0,.1,0,.3-.2.4v-.3ZM299.5,211c-.2,0-.4.1-.6.3v-.3h.6ZM341.9,267.9s0,0,0,0h0s0,0,0,0ZM335.1,170.8v-.3c0,.1,0,.2.2.3h-.2ZM294.3,175.5h0s0,0,0,0h0ZM326.1,256.1s0,0-.1.1c0,0,0,0,0-.1h.2ZM330.6,187.4v.2s0,0-.1-.1h.1ZM255.7,73.6c0,0,0-.1.1-.2v.2h-.1ZM160.6,241.9h0c0,0,0,0,0,0h0ZM187.8,201.6h.1s0,0-.1,0h0ZM294.3,208.7h-.1s0,0,.1,0h0ZM326.1,192.4c0-.1,0-.2,0-.3h.2c0,.1,0,.2-.1.3ZM262.6,156.5c0-.1,0-.2,0-.4,0,.1.1.3.2.4h-.2ZM138,82.9v.2h-.1c0,0,0-.1.1-.2ZM142.7,90.2c0,.1-.1.3-.2.4v-.4h.2ZM162.9,206.3v-.3c0,.1.2.2.3.3h-.3ZM162.9,203.9h.2c-.1.2-.2.4-.2.6v-.6ZM248.9,19.1c0,0,.1,0,.2-.1h0c0,.1-.1.1-.2.1ZM174.1,125.7s0,0,0-.1h0c0,.1,0,.1-.1.1ZM140.2,92.6h0s0,0,0,0h0ZM149.3,116.4s0,0,0-.1h.2c0,0-.1,0-.2.1ZM151.6,116.3h0c0,0,0,0-.1,0h.1ZM346.5,239.5h0s0,0,0,0h0ZM237.7,118.6h0s0,0,0,0c0,0,0,0,0,0ZM208.2,149.4h0s0,0,0,0h0ZM122.1,45.2s0,0,0,0h0s0,0,0,0ZM119.8,227.6c.2,0,.1.2,0,.2,0,0,0-.2,0-.2ZM196.9,201.6h0s0,0,0,0h0ZM337.3,206.5c0,0,0-.1-.1-.2,0,0,0,0,.1,0,0,0,0,0,0,.1,0,0,0,0,0,.1ZM337.4,205.1c.1-.1.1,0,0,0,0,0,0,0,0,.1v-.2ZM337.4,130.5s0,0,0,0h0ZM285.3,158.8h0c0,.1,0,.1,0,.1,0,0,0,0,0-.1ZM147,135.2h-.3c0,0,.1-.1.2-.2,0,0,0,.1,0,.2ZM122.1,303.5h0s0,0,0,0c0,0,0,0,0,0ZM174.2,206.3s0,0,0,0c0,0,0,0,0-.1h0c0,.1,0,.1.1.1,0,.2-.1.3-.1.5,0-.2,0-.3,0-.5ZM328.3,296.1v.2h-.1c0,0,0-.1.1-.2ZM375.9,116.3h.1s0,0-.1.1h0ZM364.6,28.7c.2,0,.3,0,.5.2-.2,0-.4,0-.5,0v-.2ZM36,56.9s0,0,0,0c0,0,0,0,0,0h0ZM49.7,312.9h.2c0,.2,0,.3.1.5-.2-.2-.3-.4-.3-.5ZM87.5,313.2c.2,0,.4-.2.6-.2v-.2c0,0,0,.2,0,.2,0,0,0,0,0,0,0,0,0,0,0,.1,0,0-.2.2-.4.2,0,0-.1,0-.2-.1ZM398.6,298.7c0,.4,0,.8,0,1.1-.2-.3-.4-.6-.5-1.1h.5ZM455.2,85.4h0c0,0,0,0,0,0,0,0,0,0,0,0ZM142.5,130.5h0c0,0-.1,0-.2,0h.2ZM142.5,135.2h0s0,0,0,0h0ZM131.7,293.9c-.2,0-.4,0-.6,0v-.8c.1.3.3.5.6.7Z"/>
        <path class="cls-1" d="M224.1,291.6h-24.9c-2.6,1.9-5.5,2.8-8.7,2.4-1.5-.2-2.8.3-2.7,2.3h-2.3c-2.5.6-4,2.2-4.5,4.7-2-.1-2.3,1.2-2.3,2.8,0,2.2,0,4.5,0,6.7,0,1.6.7,2.4,2.3,2.4.2,3.5,2.8,2,4.5,2.4.2,3.5,2.8,2,4.5,2.4,3.3,3.1,7.4,2.3,11.3,2.4,4.3,3.3,8.9,2.7,13.6,1.7v-4.1h2.3c1.6,0,2.3-.7,2.3-2.4v-2.4c1.7-.4,4.3,1.2,4.5-2.4h2.3c3.2-4.4,3.2-9.8,0-14.2-.3-1.8,1.1-4.5-2.3-4.7ZM194.6,315.3c0,0,.1,0,.2,0,0,0-.1.1-.1.2,0,0,0-.1,0-.2ZM208.2,310.6h0s0,0,0,0h0ZM215.5,305.8c0,0,0-.1,0-.2,0,0,0,.1,0,.2,0,0,0,0,0,0ZM194.6,308.2c0,0,0,0-.2,0,0,0,.1,0,.2,0,0,0,0,0,0,0Z"/>
        <path class="cls-1" d="M276.2,317.7h6.8c1.7-2.4,6.1-.7,6.8-4.7h2.3c2.3-2.4,4.5-4.7,6.8-7.1,4.4-1.1,1.4-4.8,2.3-7.1v-2.4c-.2-3.5-2.8-2-4.5-2.4-.6-2.6-2.1-4.2-4.5-4.7h-2.3c-1.7,0-3.3.3-4.8-1.3-1.7-1.8-3.7-2-4.3,1.3h-4.5c-1.8-.4-3,2.5-3.4,2.1-4.3-4.4-4.4.3-5.7,2.6-1.6,0-2.3.7-2.3,2.4v2.4h-6.8c-2.5.6-4,2.2-4.5,4.7v2.4c-.6.3-1.2.5-1.9.8,2,3,1.9,7.7,6.4,8.7-.2,2.2,1.2,2.4,2.8,2.4,4.4,0,8.7,0,13.1,0h2.3ZM267.1,305.8h0s0,0,0,0c0,0,0,0,0,0Z"/>
        <path class="cls-1" d="M227.5,390.9c1.2-.2,1.5-3.2,3.1-1.1,1.4,1.7,3.1,1.3,4.8,1.4,0,1.6.7,2.4,2.3,2.4h6.8c-.2,2.3,1.6,2.9,2.8,2.3,2.5-1.2,4.7-3.7,7.2-4.3,6.2-1.5,7-6.8,7.9-11.7.6-2.9.1-6.1.1-6.5-3.6-4.8-6-7.8-8-10.5-4.6,0-8.7,0-12.9,0-1.2,0-2,.8-1.8,2.3-1.5-.8-3-1.6-4.5-2.4h-6.8q-3.4-2-6.8,0c-1.6,0-2.3.7-2.3,2.4h-2.3c-1.6,0-2.3.7-2.3,2.4v2.4h-2.3c0,2.2,0,4.5,0,6.7,0,1.6.3,2.9,2.3,2.8,0,1.6.7,2.4,2.3,2.4-.3,1.3.7,2.5,1.5,2.3,3.1-.9,5.1,1.5,7.5,2.5.3,1.5-.9,3.6,1.2,4.5Z"/>
      </g>
    </g>
  </g>
</svg>